<?xml version="1.0" encoding="UTF-8" standalone="no"?>
<!-- Created with Inkscape (http://www.inkscape.org/) -->

<svg
   width="203.2mm"
   height="203.20001mm"
   viewBox="0 0 203.2 203.20001"
   version="1.1"
   id="svg1"
   xmlns:xlink="http://www.w3.org/1999/xlink"
   xmlns="http://www.w3.org/2000/svg"
   xmlns:svg="http://www.w3.org/2000/svg">
  <defs
     id="defs1">
    <linearGradient
       id="linearGradient226">
      <stop
         style="stop-color:#9dc1df;stop-opacity:1;"
         offset="0"
         id="stop226" />
      <stop
         style="stop-color:#ffffff;stop-opacity:1;"
         offset="0.9022215"
         id="stop228" />
      <stop
         style="stop-color:#000000;stop-opacity:1;"
         offset="1"
         id="stop227" />
    </linearGradient>
    <linearGradient
       id="linearGradient3">
      <stop
         style="stop-color:#595989;stop-opacity:1;"
         offset="0"
         id="stop3" />
      <stop
         style="stop-color:#4e4e78;stop-opacity:1;"
         offset="0.5411337"
         id="stop5" />
      <stop
         style="stop-color:#1b1b52;stop-opacity:1;"
         offset="1"
         id="stop4" />
    </linearGradient>
    <radialGradient
       xlink:href="#linearGradient3"
       id="radialGradient5"
       cx="18.4433"
       cy="59.527229"
       fx="18.4433"
       fy="59.527229"
       r="101.6"
       gradientUnits="userSpaceOnUse"
       gradientTransform="matrix(2,2.0000001,-1.7597108,1.7597117,67.86411,-141.63737)" />
    <clipPath
       clipPathUnits="userSpaceOnUse"
       id="clipPath208">
      <path
         style="display:inline;fill:none;fill-opacity:1;stroke:none;stroke-width:0;stroke-linecap:round;stroke-dasharray:none;stroke-opacity:1;paint-order:stroke fill markers"
         d="M 101.59948,19.976558 H 19.976558 V 183.22448 H 183.22448 V 19.976558 Z"
         id="path208" />
    </clipPath>
    <filter
       style="color-interpolation-filters:sRGB"
       id="filter224"
       x="-0.0096791797"
       y="-0.0084735007"
       width="1.0213749"
       height="1.0187123">
      <feFlood
         result="flood"
         in="SourceGraphic"
         flood-opacity="0.498039"
         flood-color="rgb(0,0,0)"
         id="feFlood223" />
      <feGaussianBlur
         result="blur"
         in="SourceGraphic"
         stdDeviation="1.000000"
         id="feGaussianBlur223" />
      <feOffset
         result="offset"
         in="blur"
         dx="0.500000"
         dy="0.500000"
         id="feOffset223" />
      <feComposite
         result="comp1"
         operator="in"
         in="flood"
         in2="offset"
         id="feComposite223" />
      <feComposite
         result="comp2"
         operator="over"
         in="SourceGraphic"
         in2="comp1"
         id="feComposite224" />
    </filter>
    <linearGradient
       xlink:href="#linearGradient226"
       id="linearGradient227"
       x1="19.976559"
       y1="54.767975"
       x2="190.11411"
       y2="161.54137"
       gradientUnits="userSpaceOnUse" />
  </defs>
  <g
     id="layer1">
    <path
       id="rect1"
       d="M 33.866667,0 H 169.33333 A 33.866667,33.866667 45 0 1 203.2,33.866667 V 169.33333 A 33.866667,33.866667 135 0 1 169.33333,203.2 H 33.866667 A 33.866667,33.866667 45 0 1 0,169.33333 V 33.866667 A 33.866667,33.866667 135 0 1 33.866667,0 Z"
       style="fill:url(#radialGradient5);fill-opacity:1;stroke-width:1.86254;paint-order:stroke fill markers" />
    <path
       id="path5"
       style="color:#000000;display:inline;fill:url(#linearGradient227);fill-opacity:1;stroke-linecap:round;-inkscape-stroke:none;paint-order:stroke fill markers;filter:url(#filter224)"
       d="m 40.574268,-72.230217 c -58.145173,0 -105.304684,47.157444 -105.304684,105.302617 0,55.752655 43.366436,101.37601 98.19349,105.03855 -0.0081,0.44227 -0.03359,0.88028 -0.03359,1.32447 10e-7,39.51425 32.056059,71.57031 71.570306,71.57031 39.51425,0 71.57031,-32.05606 71.57031,-71.57031 0,-13.01584 -3.50972,-25.20168 -9.58753,-35.71875 h 14.12472 a 2.1166649,2.1166649 0 0 0 2.11719,-2.11719 2.1166649,2.1166649 0 0 0 -2.11719,-2.11718 H 164.33777 C 157.85696,89.881156 149.13593,81.915714 138.88971,76.393787 a 3.3506262,3.3506262 0 0 0 0.0357,-0.485242 3.3506262,3.3506262 0 0 0 -1.08417,-2.459798 c 5.17055,-12.436869 8.03775,-26.070767 8.03775,-40.376347 0,-58.145173 -47.159509,-105.302617 -105.304682,-105.302617 z m 0,2.115117 c 57.001242,0 103.187502,46.186257 103.187502,103.1875 0,13.999254 -2.79941,27.339134 -7.84707,39.509733 a 3.3506262,3.3506262 0 0 0 -0.34003,-0.02429 3.3506262,3.3506262 0 0 0 -2.43758,1.061951 c -8.63852,-3.699859 -18.14809,-5.754688 -28.1373,-5.754688 -0.433,0 -0.85194,0.05538 -1.28312,0.06305 V 22.091675 a 2.1166649,2.1166649 0 0 0 -2.11719,-2.115117 2.1166649,2.1166649 0 0 0 -2.11718,2.115117 V 68.135376 C 77.07855,69.850218 57.59388,81.869446 45.70212,99.4823 H 22.091675 a 2.1166649,2.1166649 0 0 0 -2.115117,2.11718 2.1166649,2.1166649 0 0 0 2.115117,2.11719 h 20.904667 c -5.533128,9.58253 -8.923741,20.55689 -9.479525,32.27606 -53.704035,-3.62919 -96.13005,-48.293849 -96.13005,-102.92033 0,-57.001243 46.186258,-103.1875 103.187501,-103.1875 z M 104.99979,69.982292 c 9.67497,0 18.88422,1.981217 27.25105,5.552116 a 3.3506262,3.3506262 0 0 0 -0.0269,0.374137 3.3506262,3.3506262 0 0 0 1.08159,2.457214 c -3.73164,7.627727 -8.42095,14.688015 -13.83585,21.116541 H 103.71667 V 78.31615 70.045337 c 0.43114,-0.0079 0.85008,-0.06305 1.28312,-0.06305 z M 99.4823,70.253076 V 78.31615 99.4823 H 48.208944 C 59.77905,83.058768 78.286345,71.921967 99.4823,70.253076 Z m 38.46225,8.024317 c 9.51147,5.132449 17.68814,12.417934 23.87761,21.204907 h -36.93934 -2.67271 c 5.05958,-6.212835 9.46621,-12.978103 13.01936,-20.24786 a 3.3506262,3.3506262 0 0 0 0.3452,0.02481 3.3506262,3.3506262 0 0 0 2.36988,-0.981852 z M 45.464925,103.71667 H 99.4823 v 14.01465 c -16.70648,11.64995 -36.988536,18.52858 -58.908032,18.52858 -1.658066,0 -3.304992,-0.0478 -4.943885,-0.12506 0.553169,-11.82898 4.09145,-22.86179 9.834542,-32.41817 z m 58.251745,0 h 11.98945 c -3.70457,3.93972 -7.7105,7.58413 -11.98945,10.90321 z m 14.9009,0 h 6.26525 39.68181 c 6.27113,10.4364 9.88829,22.65082 9.88829,35.71875 0,38.37032 -31.08281,69.45312 -69.45313,69.45312 -38.370317,0 -69.453122,-31.0828 -69.453122,-69.45312 0,-0.39727 0.02334,-0.78875 0.02997,-1.18443 1.657005,0.0775 3.321498,0.12609 4.997628,0.12609 21.838312,0 42.088375,-6.70247 58.908032,-18.09243 v 60.82264 a 2.1166649,2.1166649 0 0 0 2.117182,2.11719 2.1166649,2.1166649 0 0 0 2.11719,-2.11719 V 117.3055 c 5.39097,-4.04967 10.3823,-8.59892 14.9009,-13.58883 z"
       clip-path="url(#clipPath208)" />
  </g>
</svg>
